<svg width="0" height="0" class="hidden">
  <symbol fill="none" xmlns="http://www.w3.org/2000/svg" viewBox="0 0 22 21" id="Calling">
    <path opacity="0.4" d="M13.353 1C17.054 1.411 19.978 4.331 20.393 8.032" stroke="#FF5722" stroke-width="1.5" stroke-linecap="round" stroke-linejoin="round"></path>
    <path opacity="0.4" d="M13.353 4.543C15.124 4.887 16.508 6.272 16.853 8.043" stroke="#FF5722" stroke-width="1.5" stroke-linecap="round" stroke-linejoin="round"></path>
    <path fill-rule="evenodd" clip-rule="evenodd" d="M10.0315 10.9724C14.0205 14.9604 14.9254 10.3467 17.4653 12.8848C19.9138 15.3328 21.3222 15.8232 18.2188 18.9247C17.8302 19.237 15.3613 22.9943 6.68447 14.3197C-1.99341 5.644 1.76157 3.17244 2.07394 2.78395C5.18377 -0.326154 5.66682 1.08938 8.11539 3.53733C10.6541 6.0765 6.04253 6.98441 10.0315 10.9724Z" stroke="#FF5722" stroke-width="1.5" stroke-linecap="round" stroke-linejoin="round"></path>
  </symbol>
  <symbol fill="none" xmlns="http://www.w3.org/2000/svg" viewBox="0 0 33 33" id="facebook">
    <path d="M31.2103 0.582031H1.75121C1.04275 0.582031 0.470383 1.1544 0.470383 1.86286V31.322C0.470383 32.0304 1.04275 32.6028 1.75121 32.6028H31.2103C31.9188 32.6028 32.4912 32.0304 32.4912 31.322V1.86286C32.4912 1.1544 31.9188 0.582031 31.2103 0.582031ZM27.5119 9.9281H24.9543C22.949 9.9281 22.5607 10.8807 22.5607 12.2816V15.3676H27.3478L26.7234 20.1988H22.5607V32.6028H17.5695V20.2028H13.3948V15.3676H17.5695V11.8053C17.5695 7.67063 20.0951 5.41717 23.7855 5.41717C25.5547 5.41717 27.0716 5.54925 27.5159 5.60929V9.9281H27.5119Z" fill="#FF5722"></path>
  </symbol>
  <symbol xmlns="http://www.w3.org/2000/svg" viewBox="0 0 11 20" id="facebook-footer">
    <path fill="#ababab" fill-rule="nonzero" d="M6.393 6.875v-2.5c0-.69.56-1.25 1.25-1.25h1.25V0h-2.5a3.75 3.75 0 0 0-3.75 3.75v3.125h-2.5V10h2.5v10h3.75V10h2.5l1.25-3.125h-3.75z"></path>
  </symbol>
  <symbol fill="none" xmlns="http://www.w3.org/2000/svg" viewBox="0 0 33 33" id="linkdin">
    <path d="M31.1981 0.582031H1.73898C1.03052 0.582031 0.458145 1.1544 0.458145 1.86286V31.322C0.458145 32.0304 1.03052 32.6028 1.73898 32.6028H31.1981C31.9066 32.6028 32.4789 32.0304 32.4789 31.322V1.86286C32.4789 1.1544 31.9066 0.582031 31.1981 0.582031ZM9.95631 27.8677H5.20523V12.5858H9.95631V27.8677ZM7.58277 10.4965C7.03812 10.4965 6.5057 10.335 6.05285 10.0324C5.59999 9.72978 5.24703 9.29969 5.0386 8.79651C4.83017 8.29332 4.77564 7.73962 4.88189 7.20544C4.98815 6.67126 5.25042 6.18058 5.63555 5.79546C6.02067 5.41033 6.51135 5.14806 7.04553 5.0418C7.57971 4.93555 8.13341 4.99008 8.6366 5.19851C9.13978 5.40694 9.56987 5.7599 9.87246 6.21276C10.175 6.66561 10.3366 7.19803 10.3366 7.74268C10.3326 9.26366 9.09975 10.4965 7.58277 10.4965ZM27.7439 27.8677H22.9968V20.4349C22.9968 18.6618 22.9648 16.3843 20.5272 16.3843C18.0576 16.3843 17.6773 18.3135 17.6773 20.3068V27.8677H12.9342V12.5858H17.4892V14.6752H17.5532C18.1856 13.4744 19.7347 12.2056 22.0482 12.2056C26.8593 12.2056 27.7439 15.3716 27.7439 19.4863V27.8677Z" fill="#FF5722"></path>
  </symbol>
  <symbol xmlns="http://www.w3.org/2000/svg" viewBox="0 0 41.21 37.46" id="linkedin-footer">
    <defs></defs>
    <title>Asset 25</title>
    <g id="Layer_2">
      <g id="Layer_1-2">
        <g id="LinkedIn">
          <rect x="1.04" y="12.01" width="8.03" height="25.45"></rect>
          <path d="M31,11.77c-4.6,0-7.48,2.49-8,4.24V12H14c.12,2.12,0,25.45,0,25.45h9V23.69a5.8,5.8,0,0,1,.2-2.08,4.6,4.6,0,0,1,4.35-3.12c3.13,0,4.56,2.35,4.56,5.8V37.46h9.11V23.31C41.21,15.43,36.73,11.77,31,11.77Z"></path>
          <path d="M4.91,0C1.94,0,0,1.9,0,4.42S1.89,8.83,4.79,8.83h.06c3,0,4.9-2,4.9-4.42S7.87,0,4.91,0Z"></path>
        </g>
      </g>
    </g>
  </symbol>
  <symbol fill="none" xmlns="http://www.w3.org/2000/svg" viewBox="0 0 18 21" id="Location">
    <path fill-rule="evenodd" clip-rule="evenodd" d="M1 8.65226C1.01441 4.41168 4.46376 0.985683 8.70435 1.00004C12.9449 1.0145 16.3709 4.46385 16.3566 8.70444V8.79139C16.3043 11.5479 14.7652 14.0957 12.8783 16.087C11.7991 17.2077 10.594 18.1998 9.28696 19.0436C8.93746 19.3459 8.41906 19.3459 8.06957 19.0436C6.12107 17.7753 4.41093 16.1741 3.01739 14.3131C1.77535 12.6903 1.07017 10.7207 1 8.67835V8.65226Z" stroke="#FF5722" stroke-width="1.5" stroke-linecap="round" stroke-linejoin="round"></path>
    <path opacity="0.4" d="M8.67826 11.261C10.0374 11.261 11.1391 10.1592 11.1391 8.80009C11.1391 7.44099 10.0374 6.33922 8.67826 6.33922C7.31916 6.33922 6.21739 7.44099 6.21739 8.80009C6.21739 10.1592 7.31916 11.261 8.67826 11.261Z" stroke="#FF5722" stroke-width="1.5" stroke-linecap="round" stroke-linejoin="round"></path>
  </symbol>
  <symbol fill="none" xmlns="http://www.w3.org/2000/svg" viewBox="0 0 21 20" id="Message">
    <path opacity="0.4" d="M16.2677 7.06112L12.0023 10.4954C11.1951 11.1283 10.0635 11.1283 9.25629 10.4954L4.95423 7.06112" stroke="#FF5722" stroke-width="1.5" stroke-linecap="round" stroke-linejoin="round"></path>
    <path fill-rule="evenodd" clip-rule="evenodd" d="M5.88787 1.5H15.3158C16.6752 1.51525 17.969 2.08993 18.896 3.0902C19.823 4.09048 20.3022 5.42903 20.222 6.79412V13.322C20.3022 14.6871 19.823 16.0256 18.896 17.0259C17.969 18.0262 16.6752 18.6009 15.3158 18.6161H5.88787C2.96796 18.6161 1 16.2407 1 13.322V6.79412C1 3.87545 2.96796 1.5 5.88787 1.5Z" stroke="#FF5722" stroke-width="1.5" stroke-linecap="round" stroke-linejoin="round"></path>
  </symbol>
  <symbol fill="none" xmlns="http://www.w3.org/2000/svg" viewBox="0 0 35 28" id="twitter">
    <path d="M34.1449 3.27758C32.9201 3.80592 31.5873 4.18617 30.2144 4.33426C31.6398 3.48746 32.7072 2.14964 33.2163 0.571823C31.8788 1.3675 30.4135 1.92544 28.8855 2.22089C28.2469 1.53816 27.4745 0.994256 26.6165 0.623086C25.7584 0.251916 24.8332 0.0614281 23.8983 0.0634932C20.1158 0.0634932 17.0739 3.12948 17.0739 6.89192C17.0739 7.42027 17.1379 7.94861 17.242 8.45694C11.5783 8.16075 6.52702 5.45499 3.16884 1.3123C2.55695 2.35744 2.23629 3.54746 2.24024 4.75854C2.24024 7.12808 3.44502 9.21743 5.28221 10.4462C4.19953 10.4036 3.1422 10.106 2.19621 9.57767V9.66172C2.19621 12.9799 4.54173 15.7297 7.66776 16.3621C7.08082 16.5145 6.47702 16.5925 5.8706 16.5942C5.42631 16.5942 5.00604 16.5502 4.58176 16.4902C5.44632 19.1959 7.96395 21.1612 10.9619 21.2252C8.61638 23.0624 5.67847 24.1431 2.4884 24.1431C1.91603 24.1431 1.38769 24.1231 0.839333 24.0591C3.8653 26.0003 7.45563 27.121 11.3221 27.121C23.8743 27.121 30.7427 16.7223 30.7427 7.69645C30.7427 7.40025 30.7427 7.10406 30.7227 6.80787C32.0516 5.83524 33.2163 4.63046 34.1449 3.27758Z" fill="#FF5722"></path>
  </symbol>
  <symbol xmlns="http://www.w3.org/2000/svg" viewBox="0 0 23 19" id="twitter-footer">
    <path fill="#ababab" fill-rule="nonzero" d="M22.857 2.627a9.77 9.77 0 0 1-2.7.74A4.66 4.66 0 0 0 22.22.777a9.365 9.365 0 0 1-2.972 1.134 4.684 4.684 0 0 0-8.106 3.204c0 .372.032.73.109 1.07-3.896-.19-7.343-2.058-9.659-4.902A4.718 4.718 0 0 0 .95 3.65c0 1.623.836 3.062 2.081 3.895a4.628 4.628 0 0 1-2.117-.577v.051a4.707 4.707 0 0 0 3.755 4.604 4.677 4.677 0 0 1-1.229.155c-.3 0-.603-.018-.887-.08.607 1.855 2.33 3.22 4.378 3.264a9.415 9.415 0 0 1-5.81 1.998c-.384 0-.752-.017-1.121-.064A13.192 13.192 0 0 0 7.189 19c8.622 0 13.337-7.143 13.337-13.334 0-.207-.007-.407-.017-.606a9.348 9.348 0 0 0 2.348-2.433z"></path>
  </symbol>
  <symbol xmlns="http://www.w3.org/2000/svg" viewBox="0 0 21 20" id="instagram">
    <path fill="#ababab" fill-rule="nonzero" d="M14.464 0a6.25 6.25 0 0 1 6.25 6.25v7.5a6.25 6.25 0 0 1-6.25 6.25h-7.5a6.25 6.25 0 0 1-6.25-6.25v-7.5A6.25 6.25 0 0 1 6.964 0h7.5zm4.375 13.75v-7.5a4.38 4.38 0 0 0-4.375-4.375h-7.5A4.38 4.38 0 0 0 2.59 6.25v7.5a4.38 4.38 0 0 0 4.375 4.375h7.5a4.38 4.38 0 0 0 4.375-4.375zM10.714 5a5 5 0 1 1 0 10 5 5 0 0 1 0-10zm0 8.125A3.13 3.13 0 0 0 13.84 10a3.129 3.129 0 0 0-3.125-3.125A3.129 3.129 0 0 0 7.59 10a3.13 3.13 0 0 0 3.125 3.125zm5.375-7.834a.666.666 0 1 1 0-1.332.666.666 0 0 1 0 1.332z"></path>
  </symbol>
  <symbol xmlns="http://www.w3.org/2000/svg" viewBox="0 0 23 19" id="telegram">
    <path fill="#ABABAB" d="M9.025 12.522l-.38 5.305c.544 0 .78-.232 1.062-.51l2.552-2.418 5.289 3.84c.97.535 1.653.253 1.914-.885L22.934 1.73C23.243.307 22.417-.249 21.472.1L1.068 7.844C-.325 8.38-.304 9.15.83 9.498l5.216 1.609L18.164 3.59c.57-.374 1.089-.167.662.207l-9.801 8.724z"></path>
  </symbol>
  
  <symbol fill="none" xmlns="http://www.w3.org/2000/svg" viewBox="0 0 46 41" id="car">
    <path d="M25.7496 0.0905266C23.9973 0.0969719 22.2558 0.269628 20.585 0.554003C12.1155 1.99541 7.3416 5.77539 4.76562 11.0837C7.81396 10.846 10.8205 10.5931 13.7467 10.6112C16.1016 10.6259 18.4045 10.816 20.6354 11.331C22.1148 11.6728 23.0428 12.9566 23.3313 14.4301C23.6198 15.9035 23.4151 17.6449 22.8377 19.4645L22.8097 19.5528L22.764 19.6335C22.006 20.9655 20.3945 22.0259 18.3406 23.1485C16.2867 24.2713 13.7806 25.3646 11.283 26.3153C8.78555 27.266 6.30137 28.0712 4.29326 28.6041C3.58486 28.7921 2.94072 28.9439 2.36602 29.0589C2.58818 32.0989 3.00684 35.2483 3.53867 38.4319C17.2221 34.6966 30.2477 30.6304 42.9439 26.3954C45.4767 22.0539 45.8665 17.9532 44.6009 14.019C42.4141 7.22168 38.6536 3.56514 34.326 1.69795C31.6213 0.530956 28.6704 0.0797844 25.7498 0.0905266H25.7496ZM9.71328 12.5005C8.82852 12.5503 7.92959 12.6134 7.02461 12.6798L2.79199 27.1666C3.12246 27.0895 3.46934 27.0042 3.84219 26.9053C4.25571 26.7947 4.66785 26.679 5.07852 26.5582C6.05723 23.524 9.30703 13.7246 9.71328 12.5005ZM5.15273 12.819C4.09141 12.8997 3.02148 12.9806 1.93906 13.0505C1.90781 13.0939 1.86934 13.143 1.81035 13.2719C1.65605 13.6088 1.48076 14.1916 1.33066 14.9051C1.03037 16.332 0.806249 18.2964 0.675878 20.2642C0.545703 22.2319 0.506933 24.2132 0.559375 25.6921C0.585547 26.4315 0.636523 27.05 0.700195 27.446C0.704882 27.4759 0.707812 27.4765 0.71289 27.5036C0.757812 27.5026 0.813769 27.4993 0.863867 27.4974L5.15273 12.819ZM18.875 12.8711C17.352 12.8711 16.0762 14.0998 16.0762 15.6203C16.0762 17.1408 17.352 18.3698 18.875 18.3698C20.398 18.3698 21.6738 17.1409 21.6738 15.6203C21.6738 14.0998 20.398 12.8711 18.875 12.8711ZM18.875 14.6289C19.4727 14.6289 19.916 15.0749 19.916 15.6203C19.916 16.1658 19.4727 16.612 18.875 16.612C18.2773 16.612 17.834 16.1657 17.834 15.6203C17.834 15.0749 18.2773 14.6289 18.875 14.6289ZM41.3545 28.7759C29.264 32.7785 16.8521 36.624 3.84121 40.1719C3.88154 40.3981 3.92031 40.624 3.96152 40.8504C18.3763 38.2478 28.959 34.1155 40.2271 30.1898C40.617 29.7299 40.9931 29.2583 41.3547 28.7758L41.3545 28.7759Z" fill="white"></path>
  </symbol>
  <symbol fill="none" xmlns="http://www.w3.org/2000/svg" viewBox="0 0 20 20" id="Category">
    <path fill-rule="evenodd" clip-rule="evenodd" d="M1 4.5C1 1.87479 1.02811 1 4.5 1C7.97189 1 8 1.87479 8 4.5C8 7.12521 8.01107 8 4.5 8C0.988927 8 1 7.12521 1 4.5Z" stroke="#FF5722" stroke-width="1.5" stroke-linecap="round" stroke-linejoin="round"></path>
    <path opacity="0.4" fill-rule="evenodd" clip-rule="evenodd" d="M12 4.5C12 1.87479 12.0281 1 15.5 1C18.9719 1 19 1.87479 19 4.5C19 7.12521 19.0111 8 15.5 8C11.9889 8 12 7.12521 12 4.5Z" stroke="#FF5722" stroke-width="1.5" stroke-linecap="round" stroke-linejoin="round"></path>
    <path fill-rule="evenodd" clip-rule="evenodd" d="M1 15.5C1 12.8748 1.02811 12 4.5 12C7.97189 12 8 12.8748 8 15.5C8 18.1252 8.01107 19 4.5 19C0.988927 19 1 18.1252 1 15.5Z" stroke="#FF5722" stroke-width="1.5" stroke-linecap="round" stroke-linejoin="round"></path>
    <path fill-rule="evenodd" clip-rule="evenodd" d="M12 15.5C12 12.8748 12.0281 12 15.5 12C18.9719 12 19 12.8748 19 15.5C19 18.1252 19.0111 19 15.5 19C11.9889 19 12 18.1252 12 15.5Z" stroke="#FF5722" stroke-width="1.5" stroke-linecap="round" stroke-linejoin="round"></path>
  </symbol>
  <symbol fill="none" xmlns="http://www.w3.org/2000/svg" viewBox="0 0 12 18" id="download">
    <path opacity="0.4" d="M4.8097 5.20248L4.48254 1.50325C4.48254 0.673083 5.16218 0 6.00044 0C6.8387 0 7.51834 0.673083 7.51834 1.50325L7.19119 5.20248C7.19119 5.85375 6.65805 6.38174 6.00044 6.38174C5.34173 6.38174 4.8097 5.85375 4.8097 5.20248Z" fill="#FF5722"></path>
    <path d="M4.86984 17.6247C4.81146 17.5669 4.56471 17.3509 4.35983 17.148C3.07656 15.9644 0.978153 12.8739 0.335965 11.2572C0.233523 11.0117 0.0154213 10.391 0 10.0583C0 9.74083 0.0738021 9.43756 0.219203 9.14847C0.422985 8.78739 0.74463 8.49939 1.12355 8.34012C1.38572 8.23867 2.17331 8.07939 2.18763 8.07939C3.04792 7.92121 4.44685 7.83503 5.99339 7.83503C7.46503 7.83503 8.80668 7.92121 9.68129 8.05103C9.69671 8.06521 10.6738 8.22448 11.0086 8.39794C11.6211 8.71539 12 9.33611 12 10.0005V10.0583C11.9857 10.4914 11.6057 11.4012 11.5924 11.4012C10.9502 12.9317 8.95319 15.9491 7.62585 17.1622C7.62585 17.1622 7.28438 17.5047 7.07178 17.6531C6.76556 17.8844 6.38663 18 6.00771 18C5.58473 18 5.19148 17.8702 4.86984 17.6247Z" fill="#FF5722"></path>
  </symbol>
  <symbol fill="none" xmlns="http://www.w3.org/2000/svg" viewBox="0 0 12 19" id="download2">
    <path opacity="0.4" d="M4.80969 5.70248L4.48254 2.00325C4.48254 1.17308 5.16218 0.5 6.00044 0.5C6.8387 0.5 7.51834 1.17308 7.51834 2.00325L7.19119 5.70248C7.19119 6.35375 6.65805 6.88174 6.00044 6.88174C5.34173 6.88174 4.80969 6.35375 4.80969 5.70248Z" fill="white"></path>
    <path d="M4.86984 18.1247C4.81146 18.0669 4.56471 17.8509 4.35983 17.648C3.07656 16.4644 0.978153 13.3739 0.335965 11.7572C0.233523 11.5117 0.0154213 10.891 0 10.5583C0 10.2408 0.0738021 9.93756 0.219203 9.64847C0.422985 9.28738 0.74463 8.99939 1.12355 8.84012C1.38572 8.73866 2.17331 8.57939 2.18763 8.57939C3.04792 8.42121 4.44685 8.33503 5.99339 8.33503C7.46503 8.33503 8.80668 8.42121 9.68129 8.55103C9.69671 8.56521 10.6738 8.72448 11.0086 8.89793C11.6211 9.21539 12 9.83611 12 10.5005V10.5583C11.9857 10.9914 11.6057 11.9012 11.5924 11.9012C10.9502 13.4317 8.95319 16.4491 7.62585 17.6622C7.62585 17.6622 7.28438 18.0047 7.07178 18.1531C6.76556 18.3844 6.38663 18.5 6.00771 18.5C5.58473 18.5 5.19148 18.3702 4.86984 18.1247Z" fill="white"></path>
  </symbol>
  <symbol fill="none" xmlns="http://www.w3.org/2000/svg" viewBox="0 0 100 78" id="motor">
    <path d="M49.3682 0.0304027C37.7212 -0.140597 21.5422 0.109403 18.2112 9.0574L10.0272 28.2614C9.66422 27.8462 9.18818 27.5456 8.65721 27.3964L5.36221 26.4694C4.99989 26.3667 4.62085 26.3365 4.24685 26.3806C3.87284 26.4248 3.51124 26.5423 3.18279 26.7266C2.85434 26.9108 2.56551 27.1581 2.33288 27.4543C2.10025 27.7505 1.92841 28.0897 1.82721 28.4524L0.108211 34.5564C0.00562657 34.9187 -0.0244235 35.2976 0.0197843 35.6715C0.0639922 36.0454 0.181588 36.4069 0.365825 36.7352C0.550063 37.0635 0.797316 37.3523 1.0934 37.5848C1.38948 37.8174 1.72857 37.9892 2.09121 38.0904L5.38721 39.0184C5.49721 39.0484 5.60721 39.0584 5.71721 39.0764C5.08721 40.6464 4.69521 42.3724 4.69521 43.3994V65.7194C4.69521 66.8634 5.17521 67.3934 5.93721 67.6414V73.5874C5.93602 74.1153 6.03912 74.6381 6.24057 75.126C6.44202 75.6139 6.73787 76.0573 7.11112 76.4305C7.48437 76.8038 7.92767 77.0996 8.41557 77.301C8.90347 77.5025 9.42636 77.6056 9.95421 77.6044H20.7312C21.2591 77.6056 21.782 77.5025 22.2699 77.301C22.7578 77.0996 23.2011 76.8038 23.5743 76.4305C23.9476 76.0573 24.2434 75.6139 24.4449 75.126C24.6463 74.6381 24.7494 74.1153 24.7482 73.5874V67.8594H75.2512V73.5874C75.2503 74.1153 75.3536 74.6381 75.5552 75.126C75.7568 75.6138 76.0528 76.0571 76.4261 76.4303C76.7994 76.8035 77.2427 77.0993 77.7306 77.3008C78.2185 77.5023 78.7413 77.6055 79.2692 77.6044H90.0442C90.5722 77.6056 91.0951 77.5025 91.5832 77.3011C92.0712 77.0997 92.5146 76.8038 92.888 76.4306C93.2614 76.0574 93.5575 75.6141 93.7591 75.1262C93.9608 74.6383 94.0641 74.1154 94.0632 73.5874V67.6424C94.8262 67.3944 95.3032 66.8644 95.3032 65.7204V43.4004C95.3032 42.3734 94.9102 40.6474 94.2812 39.0774C94.3912 39.0604 94.5012 39.0504 94.6112 39.0194L97.9082 38.0914C98.2708 37.9901 98.6097 37.8182 98.9057 37.5856C99.2017 37.353 99.4488 37.0643 99.633 36.7359C99.8171 36.4076 99.9346 36.0461 99.9788 35.6723C100.023 35.2985 99.9928 34.9196 99.8902 34.5574L98.1732 28.4534C98.0719 28.0906 97.9 27.7514 97.6672 27.4552C97.4345 27.1591 97.1456 26.9118 96.8171 26.7275C96.4885 26.5433 96.1269 26.4257 95.7528 26.3816C95.3787 26.3375 94.9996 26.3677 94.6372 26.4704L91.3422 27.3974C90.8112 27.5472 90.335 27.8477 89.9712 28.2624L81.7872 9.0584C78.2172 -0.0255957 61.0142 0.202403 49.3672 0.0314031L49.3682 0.0304027ZM82.7252 29.4744C82.9192 30.0504 82.3392 30.4344 81.7322 30.4694C81.7322 30.4694 79.7482 30.6374 77.0122 30.8584C74.9302 25.9944 70.0922 22.5664 64.4872 22.5664C58.3362 22.5664 53.1142 26.6964 51.4392 32.3204C50.9752 32.3264 50.4362 32.3464 50.0052 32.3464C39.4082 32.3464 18.2662 30.4694 18.2662 30.4694C17.6602 30.4334 17.0792 30.0494 17.2732 29.4744C25.4152 4.6534 25.6582 6.5194 49.5492 6.7804C73.4392 7.0404 73.5782 5.2674 82.7252 29.4744ZM64.4872 27.2574C65.9622 27.2523 67.4153 27.6144 68.7154 28.3112C70.0155 29.0079 71.1217 30.0174 71.9342 31.2484C67.1492 31.6034 61.6422 31.9664 56.5102 32.1774C57.2487 30.695 58.387 29.4486 59.7967 28.5792C61.2063 27.7097 62.831 27.2519 64.4872 27.2574ZM9.40621 35.3124C9.47821 35.4194 9.54821 35.5264 9.62821 35.6294H9.31821L9.40621 35.3124ZM14.7002 41.5464C16.7962 41.5124 28.0482 45.2994 28.0482 45.2994C29.4532 45.6954 30.6902 48.3514 30.6832 49.8114C30.6622 54.7284 17.9742 53.0214 12.8232 53.0414C12.4771 53.0421 12.1342 52.9744 11.8143 52.8423C11.4944 52.7101 11.2037 52.5162 10.9589 52.2715C10.7141 52.0267 10.52 51.7361 10.3877 51.4162C10.2555 51.0964 10.1877 50.7535 10.1882 50.4074V44.1824C10.1882 42.7224 12.6042 41.5824 14.7002 41.5464ZM85.2982 41.5464C87.3942 41.5814 89.8102 42.7224 89.8102 44.1824V50.4074C89.8109 50.7536 89.7432 51.0966 89.611 51.4166C89.4788 51.7365 89.2847 52.0273 89.0399 52.2721C88.7951 52.5169 88.5044 52.711 88.1844 52.8432C87.8644 52.9754 87.5214 53.0431 87.1752 53.0424C82.0252 53.0224 69.3362 54.7284 69.3152 49.8114C69.3082 48.3514 70.5452 45.6954 71.9502 45.2994C71.9502 45.2994 83.2022 41.5124 85.2982 41.5464Z" fill="white"></path>
  </symbol>
</svg>


