<svg width="46" height="41" viewBox="0 0 46 41" fill="none" xmlns="http://www.w3.org/2000/svg">
<path d="M25.7496 0.0905266C23.9973 0.0969719 22.2558 0.269628 20.585 0.554003C12.1155 1.99541 7.3416 5.77539 4.76562 11.0837C7.81396 10.846 10.8205 10.5931 13.7467 10.6112C16.1016 10.6259 18.4045 10.816 20.6354 11.331C22.1148 11.6728 23.0428 12.9566 23.3313 14.4301C23.6198 15.9035 23.4151 17.6449 22.8377 19.4645L22.8097 19.5528L22.764 19.6335C22.006 20.9655 20.3945 22.0259 18.3406 23.1485C16.2867 24.2713 13.7806 25.3646 11.283 26.3153C8.78555 27.266 6.30137 28.0712 4.29326 28.6041C3.58486 28.7921 2.94072 28.9439 2.36602 29.0589C2.58818 32.0989 3.00684 35.2483 3.53867 38.4319C17.2221 34.6966 30.2477 30.6304 42.9439 26.3954C45.4767 22.0539 45.8665 17.9532 44.6009 14.019C42.4141 7.22168 38.6536 3.56514 34.326 1.69795C31.6213 0.530956 28.6704 0.0797844 25.7498 0.0905266H25.7496ZM9.71328 12.5005C8.82852 12.5503 7.92959 12.6134 7.02461 12.6798L2.79199 27.1666C3.12246 27.0895 3.46934 27.0042 3.84219 26.9053C4.25571 26.7947 4.66785 26.679 5.07852 26.5582C6.05723 23.524 9.30703 13.7246 9.71328 12.5005ZM5.15273 12.819C4.09141 12.8997 3.02148 12.9806 1.93906 13.0505C1.90781 13.0939 1.86934 13.143 1.81035 13.2719C1.65605 13.6088 1.48076 14.1916 1.33066 14.9051C1.03037 16.332 0.806249 18.2964 0.675878 20.2642C0.545703 22.2319 0.506933 24.2132 0.559375 25.6921C0.585547 26.4315 0.636523 27.05 0.700195 27.446C0.704882 27.4759 0.707812 27.4765 0.71289 27.5036C0.757812 27.5026 0.813769 27.4993 0.863867 27.4974L5.15273 12.819ZM18.875 12.8711C17.352 12.8711 16.0762 14.0998 16.0762 15.6203C16.0762 17.1408 17.352 18.3698 18.875 18.3698C20.398 18.3698 21.6738 17.1409 21.6738 15.6203C21.6738 14.0998 20.398 12.8711 18.875 12.8711ZM18.875 14.6289C19.4727 14.6289 19.916 15.0749 19.916 15.6203C19.916 16.1658 19.4727 16.612 18.875 16.612C18.2773 16.612 17.834 16.1657 17.834 15.6203C17.834 15.0749 18.2773 14.6289 18.875 14.6289ZM41.3545 28.7759C29.264 32.7785 16.8521 36.624 3.84121 40.1719C3.88154 40.3981 3.92031 40.624 3.96152 40.8504C18.3763 38.2478 28.959 34.1155 40.2271 30.1898C40.617 29.7299 40.9931 29.2583 41.3547 28.7758L41.3545 28.7759Z" fill="white"/>
</svg>
