<svg width="12" height="19" viewBox="0 0 12 19" fill="none" xmlns="http://www.w3.org/2000/svg">
<path opacity="0.4" d="M4.80969 5.70248L4.48254 2.00325C4.48254 1.17308 5.16218 0.5 6.00044 0.5C6.8387 0.5 7.51834 1.17308 7.51834 2.00325L7.19119 5.70248C7.19119 6.35375 6.65805 6.88174 6.00044 6.88174C5.34173 6.88174 4.80969 6.35375 4.80969 5.70248Z" fill="white"/>
<path d="M4.86984 18.1247C4.81146 18.0669 4.56471 17.8509 4.35983 17.648C3.07656 16.4644 0.978153 13.3739 0.335965 11.7572C0.233523 11.5117 0.0154213 10.891 0 10.5583C0 10.2408 0.0738021 9.93756 0.219203 9.64847C0.422985 9.28738 0.74463 8.99939 1.12355 8.84012C1.38572 8.73866 2.17331 8.57939 2.18763 8.57939C3.04792 8.42121 4.44685 8.33503 5.99339 8.33503C7.46503 8.33503 8.80668 8.42121 9.68129 8.55103C9.69671 8.56521 10.6738 8.72448 11.0086 8.89793C11.6211 9.21539 12 9.83611 12 10.5005V10.5583C11.9857 10.9914 11.6057 11.9012 11.5924 11.9012C10.9502 13.4317 8.95319 16.4491 7.62585 17.6622C7.62585 17.6622 7.28438 18.0047 7.07178 18.1531C6.76556 18.3844 6.38663 18.5 6.00771 18.5C5.58473 18.5 5.19148 18.3702 4.86984 18.1247Z" fill="white"/>
</svg>
