<svg width="100" height="78" viewBox="0 0 100 78" fill="none" xmlns="http://www.w3.org/2000/svg">
<path d="M49.3682 0.0304027C37.7212 -0.140597 21.5422 0.109403 18.2112 9.0574L10.0272 28.2614C9.66422 27.8462 9.18818 27.5456 8.65721 27.3964L5.36221 26.4694C4.99989 26.3667 4.62085 26.3365 4.24685 26.3806C3.87284 26.4248 3.51124 26.5423 3.18279 26.7266C2.85434 26.9108 2.56551 27.1581 2.33288 27.4543C2.10025 27.7505 1.92841 28.0897 1.82721 28.4524L0.108211 34.5564C0.00562657 34.9187 -0.0244235 35.2976 0.0197843 35.6715C0.0639922 36.0454 0.181588 36.4069 0.365825 36.7352C0.550063 37.0635 0.797316 37.3523 1.0934 37.5848C1.38948 37.8174 1.72857 37.9892 2.09121 38.0904L5.38721 39.0184C5.49721 39.0484 5.60721 39.0584 5.71721 39.0764C5.08721 40.6464 4.69521 42.3724 4.69521 43.3994V65.7194C4.69521 66.8634 5.17521 67.3934 5.93721 67.6414V73.5874C5.93602 74.1153 6.03912 74.6381 6.24057 75.126C6.44202 75.6139 6.73787 76.0573 7.11112 76.4305C7.48437 76.8038 7.92767 77.0996 8.41557 77.301C8.90347 77.5025 9.42636 77.6056 9.95421 77.6044H20.7312C21.2591 77.6056 21.782 77.5025 22.2699 77.301C22.7578 77.0996 23.2011 76.8038 23.5743 76.4305C23.9476 76.0573 24.2434 75.6139 24.4449 75.126C24.6463 74.6381 24.7494 74.1153 24.7482 73.5874V67.8594H75.2512V73.5874C75.2503 74.1153 75.3536 74.6381 75.5552 75.126C75.7568 75.6138 76.0528 76.0571 76.4261 76.4303C76.7994 76.8035 77.2427 77.0993 77.7306 77.3008C78.2185 77.5023 78.7413 77.6055 79.2692 77.6044H90.0442C90.5722 77.6056 91.0951 77.5025 91.5832 77.3011C92.0712 77.0997 92.5146 76.8038 92.888 76.4306C93.2614 76.0574 93.5575 75.6141 93.7591 75.1262C93.9608 74.6383 94.0641 74.1154 94.0632 73.5874V67.6424C94.8262 67.3944 95.3032 66.8644 95.3032 65.7204V43.4004C95.3032 42.3734 94.9102 40.6474 94.2812 39.0774C94.3912 39.0604 94.5012 39.0504 94.6112 39.0194L97.9082 38.0914C98.2708 37.9901 98.6097 37.8182 98.9057 37.5856C99.2017 37.353 99.4488 37.0643 99.633 36.7359C99.8171 36.4076 99.9346 36.0461 99.9788 35.6723C100.023 35.2985 99.9928 34.9196 99.8902 34.5574L98.1732 28.4534C98.0719 28.0906 97.9 27.7514 97.6672 27.4552C97.4345 27.1591 97.1456 26.9118 96.8171 26.7275C96.4885 26.5433 96.1269 26.4257 95.7528 26.3816C95.3787 26.3375 94.9996 26.3677 94.6372 26.4704L91.3422 27.3974C90.8112 27.5472 90.335 27.8477 89.9712 28.2624L81.7872 9.0584C78.2172 -0.0255957 61.0142 0.202403 49.3672 0.0314031L49.3682 0.0304027ZM82.7252 29.4744C82.9192 30.0504 82.3392 30.4344 81.7322 30.4694C81.7322 30.4694 79.7482 30.6374 77.0122 30.8584C74.9302 25.9944 70.0922 22.5664 64.4872 22.5664C58.3362 22.5664 53.1142 26.6964 51.4392 32.3204C50.9752 32.3264 50.4362 32.3464 50.0052 32.3464C39.4082 32.3464 18.2662 30.4694 18.2662 30.4694C17.6602 30.4334 17.0792 30.0494 17.2732 29.4744C25.4152 4.6534 25.6582 6.5194 49.5492 6.7804C73.4392 7.0404 73.5782 5.2674 82.7252 29.4744ZM64.4872 27.2574C65.9622 27.2523 67.4153 27.6144 68.7154 28.3112C70.0155 29.0079 71.1217 30.0174 71.9342 31.2484C67.1492 31.6034 61.6422 31.9664 56.5102 32.1774C57.2487 30.695 58.387 29.4486 59.7967 28.5792C61.2063 27.7097 62.831 27.2519 64.4872 27.2574ZM9.40621 35.3124C9.47821 35.4194 9.54821 35.5264 9.62821 35.6294H9.31821L9.40621 35.3124ZM14.7002 41.5464C16.7962 41.5124 28.0482 45.2994 28.0482 45.2994C29.4532 45.6954 30.6902 48.3514 30.6832 49.8114C30.6622 54.7284 17.9742 53.0214 12.8232 53.0414C12.4771 53.0421 12.1342 52.9744 11.8143 52.8423C11.4944 52.7101 11.2037 52.5162 10.9589 52.2715C10.7141 52.0267 10.52 51.7361 10.3877 51.4162C10.2555 51.0964 10.1877 50.7535 10.1882 50.4074V44.1824C10.1882 42.7224 12.6042 41.5824 14.7002 41.5464ZM85.2982 41.5464C87.3942 41.5814 89.8102 42.7224 89.8102 44.1824V50.4074C89.8109 50.7536 89.7432 51.0966 89.611 51.4166C89.4788 51.7365 89.2847 52.0273 89.0399 52.2721C88.7951 52.5169 88.5044 52.711 88.1844 52.8432C87.8644 52.9754 87.5214 53.0431 87.1752 53.0424C82.0252 53.0224 69.3362 54.7284 69.3152 49.8114C69.3082 48.3514 70.5452 45.6954 71.9502 45.2994C71.9502 45.2994 83.2022 41.5124 85.2982 41.5464Z" fill="white"/>
</svg>
