<svg width="24" height="24" viewBox="0 0 24 24" fill="none" xmlns="http://www.w3.org/2000/svg">
<path fill-rule="evenodd" clip-rule="evenodd" d="M12 3.5C7.313 3.5 3.5 7.313 3.5 12C3.5 16.687 7.313 20.5 12 20.5C16.687 20.5 20.5 16.687 20.5 12C20.5 7.313 16.687 3.5 12 3.5M12 22C6.486 22 2 17.514 2 12C2 6.486 6.486 2 12 2C17.514 2 22 6.486 22 12C22 17.514 17.514 22 12 22" fill="black"/>
<path fill-rule="evenodd" clip-rule="evenodd" d="M13.4424 16.2208C13.2514 16.2208 13.0594 16.1478 12.9134 16.0018L9.42642 12.5318C9.28542 12.3908 9.20642 12.1998 9.20642 11.9998C9.20642 11.8008 9.28542 11.6098 9.42642 11.4688L12.9134 7.9978C13.2064 7.7058 13.6804 7.7058 13.9734 7.9998C14.2664 8.2938 14.2644 8.7688 13.9714 9.0608L11.0194 11.9998L13.9714 14.9398C14.2644 15.2318 14.2664 15.7058 13.9734 15.9998C13.8274 16.1478 13.6344 16.2208 13.4424 16.2208" fill="black"/>
</svg>
