<svg width="18" height="21" viewBox="0 0 18 21" fill="none" xmlns="http://www.w3.org/2000/svg">
<path fill-rule="evenodd" clip-rule="evenodd" d="M1 8.65226C1.01441 4.41168 4.46376 0.985683 8.70435 1.00004C12.9449 1.0145 16.3709 4.46385 16.3566 8.70444V8.79139C16.3043 11.5479 14.7652 14.0957 12.8783 16.087C11.7991 17.2077 10.594 18.1998 9.28696 19.0436C8.93746 19.3459 8.41906 19.3459 8.06957 19.0436C6.12107 17.7753 4.41093 16.1741 3.01739 14.3131C1.77535 12.6903 1.07017 10.7207 1 8.67835V8.65226Z" stroke="#FF5722" stroke-width="1.5" stroke-linecap="round" stroke-linejoin="round"/>
<path opacity="0.4" d="M8.67826 11.261C10.0374 11.261 11.1391 10.1592 11.1391 8.80009C11.1391 7.44099 10.0374 6.33922 8.67826 6.33922C7.31916 6.33922 6.21739 7.44099 6.21739 8.80009C6.21739 10.1592 7.31916 11.261 8.67826 11.261Z" stroke="#FF5722" stroke-width="1.5" stroke-linecap="round" stroke-linejoin="round"/>
</svg>
